<svg xmlns="http://www.w3.org/2000/svg" viewBox="0 0 512.001 512.001" width="512" height="512"><path d="M413.397 154.502L267.831 73.85c-7.407-4.103-16.252-4.103-23.659 0v.001l-145.567 80.65a24.42 24.42 0 0 0-12.58 21.352v160.291c0 8.871 4.82 17.053 12.58 21.352l145.567 80.652a24.358 24.358 0 0 0 11.829 3.078c4.062 0 8.126-1.026 11.83-3.078l145.566-80.651a24.42 24.42 0 0 0 12.58-21.352V175.854a24.419 24.419 0 0 0-12.58-21.352zm-159.534-63.16a4.38 4.38 0 0 1 4.276 0l58.126 32.205-140.19 77.673-59.488-33.82 137.276-76.058zM246.004 416.3l-137.706-76.296a4.41 4.41 0 0 1-2.276-3.859v-151.75l64.967 36.935.048.027 74.967 42.62V416.3zm-49.563-203.502l140.456-77.82 60.403 33.465-141.234 78.252-59.625-33.897zm209.538 123.346a4.413 4.413 0 0 1-2.275 3.862l-137.706 76.295V264.052l139.981-77.557v149.649z" data-original="#000000" class="active-path" data-old_color="#000000" fill="#0C4D2B"/><path d="M185.824 254.478l-52.982-29.179a9.997 9.997 0 0 0-14.822 8.758v42.269c0 3.644 1.983 7 5.175 8.759l52.982 29.179a10 10 0 0 0 14.821-8.758v-42.269a9.994 9.994 0 0 0-5.174-8.759zm-14.822 34.106l-32.984-18.165V250.98l32.984 18.166v19.438zM227.534 360.19l-26.49-14.59c-4.836-2.664-10.918-.902-13.582 3.935-2.664 4.837-.902 10.917 3.935 13.582l26.49 14.59a9.949 9.949 0 0 0 4.814 1.242 10 10 0 0 0 8.768-5.177c2.664-4.837.903-10.918-3.935-13.582z" data-original="#000000" class="active-path" data-old_color="#000000" fill="#0C4D2B"/><path d="M465.259 108.542l18.448-18.448a10.002 10.002 0 0 0 2.168-10.896 10 10 0 0 0-9.238-6.172h-49.66c-5.521 0-9.999 4.477-9.999 9.999v49.66a10.001 10.001 0 0 0 9.996 9.999 9.994 9.994 0 0 0 7.072-2.929l16.845-16.845c63.339 92.606 52.012 219.896-28.038 299.944-68.85 68.849-171.091 88.406-260.47 49.82-5.07-2.188-10.955.146-13.143 5.216-2.189 5.07.146 10.954 5.216 13.143 32.223 13.91 66.603 20.968 101.324 20.968 15.435 0 30.943-1.396 46.348-4.204 51.256-9.345 97.89-33.827 134.865-70.802 43.767-43.768 70.181-101.843 74.378-163.526 4.001-58.822-12.35-117.112-46.112-164.927zm-28.283.002V93.022h15.522l-15.522 15.522zM133.606 457.809l-.39-.238c-4.716-2.873-10.867-1.378-13.74 3.34-2.872 4.716-1.377 10.867 3.34 13.74l.39.238a9.994 9.994 0 0 0 13.74-3.339c2.87-4.717 1.376-10.868-3.34-13.741zM390.55 38.186l-.495-.306c-4.703-2.895-10.861-1.429-13.756 3.275s-1.427 10.862 3.276 13.757l.495.306a9.947 9.947 0 0 0 5.23 1.484 9.992 9.992 0 0 0 8.525-4.759c2.894-4.705 1.427-10.863-3.275-13.757zM356.985 20.726C310.491.787 259.517-4.907 209.577 4.257c-51.139 9.386-97.671 33.849-134.57 70.748C31.239 118.773 4.825 176.848.629 238.531c-3.999 58.82 12.352 117.111 46.114 164.926l-18.448 18.448a10.002 10.002 0 0 0-2.168 10.896 10 10 0 0 0 9.238 6.172h49.66c5.521 0 9.999-4.477 9.999-9.999v-49.66a9.999 9.999 0 0 0-17.068-7.07L61.11 389.09C-2.23 296.484 9.098 169.194 89.147 89.145 157.819 20.472 259.857.828 349.103 39.104c5.074 2.177 10.953-.174 13.13-5.248 2.177-5.074-.172-10.953-5.248-13.13zM75.025 403.455v15.522H59.504l15.521-15.522z" data-original="#000000" class="active-path" data-old_color="#000000" fill="#0C4D2B"/></svg>