<svg id="Capa_1" xmlns="http://www.w3.org/2000/svg" viewBox="0 0 512 512"><style>.st0{fill:#0c4d2b}</style><path class="st0" d="M465.5 304.1c1.8-2.8 2.1-6.4.8-9.5l-28.2-64.3c-1.6-3.6-5.2-6-9.2-6h-35.7c-5.5 0-10 4.5-10 10v64.3c0 5.5 4.5 10 10 10H457c3.5 0 6.7-1.7 8.5-4.5zm-23.6-15.5h-38.5v-44.3h19.1l19.4 44.3z"/><path class="st0" d="M10 60.1c-5.5 0-10 4.5-10 10v330.4c0 5.5 4.5 10 10 10h68.3c9.5 24.2 33.1 41.4 60.6 41.4s51.1-17.2 60.6-41.4H373c4.3 23.5 25 41.4 49.7 41.4 24.8 0 45.4-17.9 49.7-41.4H502c5.5 0 10-4.5 10-10V289.2c0-1.4-.3-2.7-.8-4l-43.7-99.8c-1.6-3.6-5.2-6-9.2-6h-99.8V70.1c0-5.5-4.5-10-10-10h-124c-5.5 0-10 4.5-10 10s4.5 10 10 10h114v310.4H203.8c.1-1.2.1-2.4.1-3.7 0-35.9-29.2-65.1-65-65.1s-65 29.2-65 65.1c0 1.2 0 2.5.1 3.7H20V80.1h114c5.5 0 10-4.5 10-10s-4.5-10-10-10H10zm482 330.4h-19.9c-5-22.7-25.2-39.8-49.4-39.8s-44.5 17.1-49.4 39.8h-14.8v-191h93.3l40.2 91.9v99.1zm-99.9 10.8c0-16.9 13.7-30.6 30.6-30.6s30.6 13.7 30.6 30.6-13.7 30.6-30.6 30.6-30.6-13.7-30.6-30.6zM93.8 386.8c0-24.9 20.2-45.1 45-45.1s45 20.2 45 45.1-20.2 45.1-45 45.1-45-20.2-45-45.1z"/><path class="st0" d="M188.3 73.9c1.9-4.5.1-9.8-4-12.3-3.4-2.1-7.9-2-11.2.4-3.4 2.5-4.9 7-3.7 11 1.2 3.9 4.8 6.8 8.9 7.1 4.4.2 8.4-2.3 10-6.2zM91.9 201.1c5.5 0 10-4.5 10-10s-4.5-10-10-10H55.6c-5.5 0-10 4.5-10 10v89.6c0 5.5 4.5 10 10 10s10-4.5 10-10V245H89c5.5 0 10-4.5 10-10s-4.5-10-10-10H65.6v-24l26.3.1zM233.9 201.2c5.5 0 10-4.5 10-10s-4.5-10-10-10h-37.7c-5.5 0-10 4.5-10 10v89.4c0 5.5 4.5 10 10 10h37.7c5.5 0 10-4.5 10-10s-4.5-10-10-10h-27.7V246h24.9c5.5 0 10-4.5 10-10s-4.5-10-10-10h-24.9v-24.7l27.7-.1zM306.5 201.2c5.5 0 10-4.5 10-10s-4.5-10-10-10h-37.7c-5.5 0-10 4.5-10 10v89.4c0 5.5 4.5 10 10 10h37.7c5.5 0 10-4.5 10-10s-4.5-10-10-10h-27.7V246h24.9c5.5 0 10-4.5 10-10s-4.5-10-10-10h-24.9v-24.7l27.7-.1zM118.2 179.9c-5.6 0-10 4.5-10 10v90.3c0 5.5 4.5 10 10 10s10-4.5 10-10v-29l31.3 35.6c2 2.2 4.7 3.4 7.5 3.4 2.3 0 4.7-.8 6.6-2.5 4.1-3.6 4.5-10 .9-14.1L150.2 246c15.4-3.5 26.8-16.8 26.8-32.6 0-18.4-15.6-33.5-34.8-33.5h-24zm38.8 33.5c0 7.3-6.8 13.5-14.8 13.5h-13.9v-13.5-13.5h14c7.9 0 14.7 6.2 14.7 13.5z"/></svg>