<svg id="Layer_1" xmlns="http://www.w3.org/2000/svg" viewBox="0 0 512 512"><style>.st0{fill:#0c4d2b;stroke:#0c4d2b;stroke-width:6;stroke-miterlimit:10}</style><path class="st0" d="M319.6 139.8c0-35.1-28.5-63.6-63.7-63.6-35.1 0-63.6 28.5-63.6 63.7 0 35.1 28.5 63.6 63.6 63.6 35.2-.1 63.7-28.6 63.7-63.7zm-112.2 0c0-26.8 21.8-48.6 48.6-48.6s48.6 21.8 48.6 48.6-21.7 48.6-48.6 48.6c-26.8-.1-48.6-21.8-48.6-48.6z"/><path class="st0" d="M511.5 501.8l-61.4-161.1c-1.1-2.9-3.9-4.8-7-4.8H326.7c.7-1.2 1.4-2.3 2.1-3.4 44.7-74.1 67.3-138.9 66.9-192.6C395.8 62.6 333.2 0 256 0c-77.2 0-139.8 62.6-139.8 139.8-.3 53.7 22.2 118.6 66.9 192.6.7 1.2 1.4 2.3 2.1 3.4H68.9c-3.1 0-5.9 1.9-7 4.8L.5 501.8c-1.5 3.9.5 8.2 4.3 9.7.9.3 1.8.5 2.7.5h496.9c4.2 0 7.5-3.4 7.5-7.5.1-.9-.1-1.9-.4-2.7zm-380.3-362c0-68.9 55.9-124.7 124.8-124.7S380.7 71 380.7 139.9C381.3 247 281.3 379 256 410.7 230.7 379 130.6 246.9 131.2 139.8zm119 287.6c2.7 3.2 7.5 3.6 10.6.9.3-.3.6-.5.9-.9 20-24.4 38.6-49.9 55.6-76.5h120.5l9.6 25.3L211.9 460l-84-109.1h66.7c17.1 26.6 35.6 52.1 55.6 76.5zm-38.5 48.7l140.6-50 54.5 70.8H153.1l58.6-20.8zM74.1 350.9h34.8l88 114.4-88.9 31.6H18.5l55.6-146zm351.7 146l-58.6-76.2 85.7-30.5 40.7 106.6h-67.8z"/></svg>