<svg id="Capa_1" xmlns="http://www.w3.org/2000/svg" viewBox="0 0 512 512"><style>.st0{fill:#0c4d2b}</style><path class="st0" d="M473.5 267.5c-5.7 0-10.9 1.4-15.5 3.5-7-9-18-14.8-30.3-14.8-6.4 0-12.2 1.7-17.2 4.2l-.5.3-15.7 9.3c-7-8.4-17.6-13.8-29.4-13.8-6.4 0-12.2 1.7-17.2 4.2l-.6.4-60.2 36.9c-13.6-4-28.7-8.4-43.3-12.6-15.4-4.4-30.2-8.4-42-11.4-5.9-1.5-11.1-2.7-15.4-3.6-2.1-.4-4-.8-5.7-1-1.7-.3-3.1-.4-4.7-.4-1.2 0-2.3.1-3.5.3-4.4.6-10.7 1.9-18.2 3.7-15.2 3.6-34.6 8.8-45.3 11.7V266c0-12.6-10.3-22.9-22.9-22.9h-63C10.3 243.2 0 253.4 0 266v177.3c0 12.6 10.3 22.9 22.9 22.9h62.9c12.6 0 22.9-10.3 22.9-22.9v-13.8c13.6 3 43.7 9.5 75.5 16 21.5 4.4 43.7 8.8 62.1 12.2 9.2 1.7 17.4 3.1 24.1 4 6.8 1 11.8 1.6 15.7 1.6 3 0 5.8-.6 8.9-1.4 5.7-1.6 12.2-4.3 19.6-7.9 25.9-12.6 63-36.2 98-59.6 35-23.3 67.7-46.4 83.7-57.4 10-6.9 15.7-18.6 15.7-31 0-21.2-17.2-38.4-38.5-38.5zm-382 175.9c0 3.1-2.6 5.7-5.7 5.7H22.9c-3.1 0-5.7-2.6-5.7-5.7V266c0-3.1 2.6-5.7 5.7-5.7h62.9c3.1 0 5.7 2.6 5.7 5.7v177.4zm395.1-120.5c-19.7 13.6-63.8 44.7-106.5 72.5-21.3 13.9-42.3 26.8-59.5 36.3-8.6 4.7-16.3 8.5-22.4 11.1-3.1 1.3-5.7 2.2-7.9 2.8-2.1.6-3.7.8-4.3.8-1.9 0-6.8-.5-13.2-1.4-22.5-3.3-64.7-11.7-101.1-19.3-18.2-3.8-34.9-7.4-47.1-10-7.1-1.5-12.6-2.7-16-3.5V302c1.7-.5 3.9-1.1 6.5-1.8 9-2.5 22.8-6.1 35.2-9.2 6.2-1.5 12-2.9 16.7-3.9 2.3-.5 4.3-.9 5.9-1.1 1.5-.3 2.7-.3 2.7-.3s.9.1 2.2.2c4.7.7 14.4 3 26.3 6.1 35.6 9.3 91.8 26.1 114.5 33 7.9 2.4 15 5.9 19.6 10.3 2.3 2.2 4.1 4.5 5.3 7 1.2 2.5 1.9 5.2 1.9 8.6 0 6.7-2.7 12.8-7.1 17.2-4.4 4.4-10.3 7-17 7.1l-22.1-2.2-75.6-9.7c-4.7-.6-9 2.7-9.6 7.4-.6 4.7 2.7 9 7.4 9.6l75.8 9.7 23.5 2.3h.4c22.9 0 41.4-18.6 41.5-41.5 0-5.8-1.3-11.2-3.5-15.9-3.4-7.1-8.9-12.7-15.1-16.9-6.2-4.2-13.2-7.2-20.4-9.4-4-1.2-9-2.7-14.7-4.5l46.6-28.5c3-1.5 6.1-2.3 9.4-2.3 5.5 0 10.6 2.1 14.3 5.6l-23 13.6c-4.1 2.4-5.4 7.7-3 11.8 2.4 4.1 7.7 5.4 11.8 3l53.4-31.7c3-1.5 6.1-2.4 9.4-2.4 5.9 0 11.2 2.5 15.1 6.4l-62.2 36.9c-4.1 2.4-5.4 7.7-3 11.8 2.4 4.1 7.7 5.4 11.8 3l67.2-39.9c.7-.1 1.3-.3 2-.5 1.4-.6 2.5-1.5 3.4-2.6l2.1-1.2c3-1.5 6.1-2.4 9.4-2.4 5.9 0 11.2 2.4 15.1 6.2 3.9 3.9 6.2 9.2 6.2 15.1-.1 7.2-3.4 13.5-8.3 16.9zM273.1 234.8c-4.7 0-8.6-3.8-8.6-8.6V93.3c0-4.7 3.8-8.6 8.6-8.6 4.7 0 8.6 3.8 8.6 8.6v132.9c-.1 4.8-3.9 8.6-8.6 8.6z"/><path class="st0" d="M197.8 92.3c0-4.7 3.8-8.6 8.6-8.6h133.3c4.7 0 8.6 3.8 8.6 8.6 0 4.7-3.8 8.6-8.6 8.6H206.4c-4.7 0-8.6-3.9-8.6-8.6zM197.8 60.8c0-4.7 3.8-8.6 8.6-8.6h133.3c4.7 0 8.6 3.8 8.6 8.6 0 4.7-3.8 8.6-8.6 8.6H206.4c-4.7 0-8.6-3.9-8.6-8.6z"/></svg>