<svg xmlns="http://www.w3.org/2000/svg" viewBox="0 0 480 480" width="512" height="512"><path d="M367.575 206.344l-30.344 30.344-10.344-10.344-11.312 11.312 16 16a8 8 0 0 0 11.312 0l36-36-11.312-11.312zM145.231 40h96v16h-96zM97.231 72h192v16h-192zM49.231 360h192v16h-192zM49.231 392h192v16h-192z" data-original="#000000" class="active-path" data-old_color="#000000" fill="#0C4D2B"/><path d="M460.399 304.208L408.151 252a69.862 69.862 0 0 0-.376-26.4l52.656-52.664a8 8 0 0 0-4.76-13.6l-44.56-4.936-4.968-44.528a8 8 0 0 0-13.601-4.8l-23.312 23.296V8a8 8 0 0 0-8-8h-336a8 8 0 0 0-8 8v464a8 8 0 0 0 8 8h336a8 8 0 0 0 8-8V348.8l23.304 23.304a8 8 0 0 0 13.6-4.8l4.968-44.528 44.536-4.968a8 8 0 0 0 4.761-13.6zm-68.312-176.064l3.832 34.352a8 8 0 0 0 7.064 7.056l34.352 3.832-35.352 35.344a72.153 72.153 0 0 0-51.096-39.392l41.2-41.192zM321.279 310.16l-38.904 38.904-3.832-34.352a8 8 0 0 0-7.064-7.064l-34.352-3.824 34.44-34.448a72.209 72.209 0 0 0 49.712 40.784zm-84.152-136.776l34.352-3.832a8 8 0 0 0 7.064-7.056l3.832-34.352 41.2 41.192a72.153 72.153 0 0 0-51.096 39.392l-35.352-35.344zM281.231 240c0-30.928 25.072-56 56-56s56 25.072 56 56c-.04 30.911-25.089 55.96-56 56-30.928 0-56-25.072-56-56zm72 224h-320V16h320v128h.368l-16.368 16.368-55.304-55.304a8 8 0 0 0-13.6 4.801l-4.976 44.536-44.536 4.968a8 8 0 0 0-4.76 13.6l52.632 52.632a69.862 69.862 0 0 0-.376 26.4l-52.28 52.264a8 8 0 0 0 4.76 13.6l44.536 4.968 4.968 44.528a8 8 0 0 0 13.6 4.8l55.336-55.36 16 16V464zm49.752-156.352a8 8 0 0 0-7.064 7.064l-3.832 34.352-38.904-38.904a72.207 72.207 0 0 0 49.712-40.8l34.44 34.448-34.352 3.84z" data-original="#000000" class="active-path" data-old_color="#000000" fill="#0C4D2B"/><path data-original="#000000" class="active-path" data-old_color="#000000" fill="#0C4D2B" d="M49.231 296h144v16h-144zM49.231 328h144v16h-144z"/></svg>