<svg id="Capa_1" xmlns="http://www.w3.org/2000/svg" viewBox="0 0 512 512"><style>.st0{fill:#0c4d2b;stroke:#0c4d2b;stroke-width:6;stroke-miterlimit:10}</style><path class="st0" d="M8.4 255.9h.3c4.6 0 8.4-3.6 8.5-8.2 4.6-131.9 115.3-235 247.1-230.4C315 19.1 363.9 37 403.7 68.4h-45.4c-4.7 0-8.5 3.8-8.5 8.5s3.8 8.5 8.5 8.5H426.7c.7-.1 1.3-.2 2-.4.4-.1.9-.2 1.3-.3.2-.1.4-.3.6-.4.8-.4 1.5-.9 2.1-1.5l.1-.1.6-.9c.4-.5.8-1.1 1.1-1.8.2-.7.4-1.4.4-2.1.1-.4.2-.7.2-1.1V8.5c0-4.7-3.8-8.5-8.5-8.5s-8.5 3.8-8.5 8.5V58C308.8-31.6 147.6-15.6 58 93.7 22.4 137.1 2.1 191 .2 247.1c-.2 4.7 3.5 8.6 8.2 8.8zM77.5 414.8c-3.1-3.5-8.5-3.9-12.1-.7-3.5 3.1-3.9 8.5-.7 12.1 5.9 6.6 12.1 12.9 18.6 18.8 3.5 3.1 8.9 2.8 12-.8 3-3.4 2.8-8.7-.5-11.8-6.1-5.6-11.9-11.4-17.3-17.6zM179.3 482.4c-7.8-2.6-15.5-5.7-22.9-9.1-4.2-2.1-9.3-.4-11.4 3.9-2.1 4.2-.4 9.3 3.9 11.4.1.1.3.1.4.2 8 3.7 16.2 7 24.6 9.8 4.5 1.5 9.3-.9 10.8-5.4s-.9-9.3-5.4-10.8zM134.5 461.8c-7.1-4.2-14-8.8-20.6-13.7-3.7-2.9-9.1-2.3-12 1.4-2.9 3.7-2.3 9.1 1.4 12 .1.1.3.2.4.3 7.1 5.3 14.4 10.1 22 14.6 4.1 2.4 9.3 1.1 11.7-3 2.5-4 1.1-9.2-2.9-11.6zM62 395.5c-4.8-6.7-9.3-13.6-13.4-20.8-2.4-4.1-7.6-5.5-11.7-3.1s-5.5 7.6-3.1 11.7c4.4 7.6 9.2 15 14.3 22.2 2.8 3.8 8.2 4.5 11.9 1.7 3.8-2.7 4.6-7.9 2-11.7zM38.2 356.3c0-1.2-.2-2.4-.7-3.5v-.1c-3.3-7.5-6.3-15.2-8.8-23-1.2-4.5-5.9-7.2-10.5-6-4.5 1.2-7.2 5.9-6 10.5.1.3.2.5.3.8 2.7 8.4 5.9 16.7 9.5 24.7 1.4 3.1 4.4 5.1 7.8 5.1 4.6 0 8.4-3.8 8.4-8.5zM15.7 316c4.6-1 7.5-5.5 6.6-10.1-1.7-8.1-3-16.2-3.9-24.4-.5-4.7-4.7-8.1-9.4-7.6s-8.1 4.7-7.6 9.4c.9 8.8 2.3 17.5 4.1 26.1 1.1 4.6 5.6 7.5 10.2 6.6zM498.4 307.2s-.1 0 0 0c-4.6-1.1-9.2 1.7-10.3 6.2-2 8-4.4 15.9-7.2 23.6-1.6 4.4.7 9.3 5.1 10.9 4.4 1.6 9.3-.7 10.9-5.1 3-8.3 5.6-16.8 7.7-25.3 1.1-4.5-1.7-9.1-6.2-10.3zM227.4 493.2c-8.2-1-16.3-2.4-24.3-4.2-4.6-1-9.2 1.8-10.2 6.4-1 4.6 1.8 9.2 6.4 10.2 8.6 1.9 17.3 3.4 26.1 4.5.3 0 .7.1 1 .1 4.7 0 8.5-3.8 8.5-8.6 0-4.2-3.2-7.9-7.5-8.4zM482.6 355.9c-4.2-2-9.3-.3-11.4 4-3.6 7.4-7.6 14.6-11.9 21.6-2.4 4-1.1 9.3 3 11.7 3.9 2.4 9.1 1.2 11.5-2.7 4.6-7.5 8.9-15.3 12.7-23.2 2.1-4.2.4-9.3-3.9-11.4zM457.4 400.3c-3.7-2.9-9.1-2.3-12 1.4l-.2.2c-5 6.5-10.4 12.8-16.1 18.8-3.2 3.4-3.1 8.8.3 12.1 3.4 3.2 8.8 3.1 12.1-.3 6.1-6.4 11.8-13.1 17.2-20.1 3-3.8 2.4-9.2-1.3-12.1zM503.6 256.4c-4.6-.2-8.6 3.3-8.8 8v.3c-.3 8.2-1 16.4-2.1 24.6-.6 4.7 2.6 9 7.3 9.6.4.1.8.1 1.2.1 4.3 0 7.9-3.1 8.4-7.4 1.2-8.7 2-17.5 2.3-26.4.1-4.7-3.6-8.6-8.3-8.8zM411.3 437.6c-6.3 5.4-12.8 10.4-19.6 15.1-3.9 2.7-4.9 8-2.2 11.9s8 4.9 11.9 2.2c7.3-5 14.3-10.5 21-16.2 3.6-3.1 4-8.4.9-12-3-3.7-8.4-4.1-12-1zM325.2 484.8c-7.9 2.4-15.9 4.3-24 5.9-4.6.9-7.7 5.4-6.8 10 .8 4 4.3 6.9 8.4 6.9.5 0 1.1 0 1.6-.1 8.7-1.7 17.3-3.8 25.7-6.3 4.5-1.5 6.9-6.3 5.4-10.8-1.3-4.4-5.9-6.8-10.3-5.6zM277.2 494h-.5c-6.8.6-13.8.9-20.8.9H252c-4.7.1-8.5 3.7-8.7 8.4-.1 4.7 3.7 8.6 8.4 8.7h4.2c7.5 0 14.9-.3 22.2-1 4.7-.3 8.3-4.3 8-9-.2-4.7-4.2-8.3-8.9-8zM370.7 465.7c-7.2 4-14.6 7.5-22.2 10.7-4.4 1.8-6.5 6.7-4.7 11.1 1.8 4.4 6.7 6.5 11.1 4.7.1 0 .1-.1.2-.1 8.1-3.4 16.1-7.3 23.8-11.5 4.1-2.3 5.6-7.5 3.4-11.6-2.3-4.1-7.5-5.6-11.6-3.3z"/><path class="st0" d="M256 76.8C157 76.8 76.8 157 76.8 256S157 435.2 256 435.2 435.2 355 435.2 256c-.1-98.9-80.3-179.1-179.2-179.2zm136.5 187.7h25.2c-4.4 82.7-70.5 148.7-153.2 153.2v-25.2c0-4.7-3.8-8.5-8.5-8.5s-8.5 3.8-8.5 8.5v25.2c-82.7-4.4-148.7-70.5-153.2-153.2h25.2c4.7 0 8.5-3.8 8.5-8.5s-3.8-8.5-8.5-8.5H94.3c4.4-82.7 70.5-148.7 153.2-153.2v25.2c0 4.7 3.8 8.5 8.5 8.5s8.5-3.8 8.5-8.5V94.3c82.7 4.4 148.7 70.5 153.2 153.2h-25.2c-4.7 0-8.5 3.8-8.5 8.5s3.8 8.5 8.5 8.5z"/><path class="st0" d="M264.5 232v-78.4c0-4.7-3.8-8.5-8.5-8.5s-8.5 3.8-8.5 8.5V232c-7.2 2.6-12.9 8.3-15.5 15.5h-44.2c-4.7 0-8.5 3.8-8.5 8.5s3.8 8.5 8.5 8.5H232c4.7 13.3 19.3 20.3 32.6 15.6 13.3-4.7 20.3-19.3 15.6-32.6-2.6-7.2-8.4-13-15.7-15.5zm-8.5 32.5c-4.7 0-8.5-3.8-8.5-8.5s3.8-8.5 8.5-8.5 8.5 3.8 8.5 8.5-3.8 8.5-8.5 8.5z"/></svg>